<?xml version="1.0" ?><svg height="48px" version="1.1" viewBox="0 0 48 48" width="48px" xmlns="http://www.w3.org/2000/svg" xmlns:xlink="http://www.w3.org/1999/xlink"><title/><desc/><g fill="none" fill-rule="evenodd" id="Page-1" stroke="none" stroke-width="1"><g id="Artboard-Copy" transform="translate(-107.000000, -729.000000)"><path d="M144.5396,753.9805 C145.9536,753.9785 146.9986,752.8735 147.000591,751.4765 C147.000591,750.0825 145.8296,749.0035 144.4146,749.0055 L123.7146,749.0315 L129.4776,743.3145 C130.4776,742.3245 130.4806,740.7245 129.4816,739.7385 C128.4836,738.7515 126.8626,738.7535 125.8626,739.7425 L115.8946,749.5855 L115.8256,749.6565 C115.3186,750.1195 115.000591,750.7815 115.000591,751.5135 C114.9986,752.2485 115.3136,752.9105 115.8206,753.3715 L115.8906,753.4395 L125.8356,763.2615 C126.8336,764.2485 128.4546,764.2465 129.4556,763.2555 C130.4566,762.2695 130.4576,760.6685 129.4596,759.6815 L123.8386,754.0035 L144.5396,753.9805 Z" fill="#000000" id="arrow2"/><g id="slices" transform="translate(47.000000, 9.000000)"/></g></g></svg>