<?xml version="1.0" ?><!DOCTYPE svg  PUBLIC '-//W3C//DTD SVG 1.1//EN'  'http://www.w3.org/Graphics/SVG/1.1/DTD/svg11.dtd'><svg xmlns="http://www.w3.org/2000/svg" xmlns:xlink="http://www.w3.org/1999/xlink" xmlns:serif="http://www.serif.com/" width="100%" height="100%" viewBox="0 0 64 64" version="1.1" xml:space="preserve" style="fill-rule:evenodd;clip-rule:evenodd;stroke-linejoin:round;stroke-miterlimit:2;"><g><path d="M46.151,9.364L41.908,13.607C41.127,14.388 41.127,15.654 41.908,16.435L47.565,22.092C48.346,22.873 49.612,22.873 50.394,22.092L54.636,17.849L58.879,22.092C59.44,22.653 60.281,22.829 61.021,22.54C61.762,22.251 62.259,21.551 62.291,20.757L62.998,3.079C63.021,2.522 62.809,1.98 62.414,1.586C62.02,1.191 61.478,0.979 60.92,1.001L43.243,1.708C42.448,1.74 41.749,2.239 41.46,2.979C41.17,3.718 41.346,4.559 41.908,5.121L46.151,9.364Z"/></g><g><path d="M9.364,17.849L13.607,22.092C14.388,22.873 15.654,22.873 16.435,22.092L22.092,16.435C22.873,15.654 22.873,14.388 22.092,13.606L17.849,9.364L22.092,5.121C22.653,4.56 22.829,3.719 22.54,2.979C22.251,2.238 21.551,1.741 20.757,1.709L3.079,1.002C2.522,0.979 1.98,1.191 1.586,1.586C1.191,1.98 0.979,2.522 1.001,3.08L1.708,20.757C1.74,21.552 2.239,22.251 2.979,22.54C3.718,22.83 4.559,22.654 5.121,22.092L9.364,17.849Z"/></g><g><path d="M17.849,54.636L22.092,50.393C22.873,49.612 22.873,48.346 22.092,47.565L16.435,41.908C15.654,41.127 14.388,41.127 13.606,41.908L9.364,46.151L5.121,41.908C4.56,41.347 3.719,41.171 2.979,41.46C2.238,41.749 1.741,42.449 1.709,43.243L1.002,60.921C0.979,61.478 1.191,62.02 1.586,62.414C1.98,62.809 2.522,63.021 3.08,62.999L20.757,62.292C21.552,62.26 22.251,61.761 22.54,61.021C22.83,60.282 22.654,59.441 22.092,58.879L17.849,54.636Z"/></g><g><path d="M54.636,46.151L50.393,41.908C49.612,41.127 48.346,41.127 47.565,41.908L41.908,47.565C41.127,48.346 41.127,49.612 41.908,50.394L46.151,54.636L41.908,58.879C41.347,59.44 41.171,60.281 41.46,61.021C41.749,61.762 42.449,62.259 43.243,62.291L60.921,62.998C61.478,63.021 62.02,62.809 62.414,62.414C62.809,62.02 63.021,61.478 62.999,60.92L62.292,43.243C62.26,42.448 61.761,41.749 61.021,41.46C60.282,41.17 59.441,41.346 58.879,41.908L54.636,46.151Z"/></g></svg>